<svg xmlns="http://www.w3.org/2000/svg" width="1024" height="1024" viewBox="0 0 1024 1024">
<g>
<path d="M 187.00 694.13 C187.00,693.73 189.81,692.03 193.25,690.37 C221.53,676.69 286.30,639.30 287.83,635.77 C288.02,635.35 288.60,635.00 289.13,635.00 C290.55,635.00 318.90,615.48 328.32,608.02 C328.97,607.50 334.45,603.18 340.50,598.41 C346.55,593.65 352.62,588.71 354.00,587.45 C355.38,586.18 360.26,581.90 364.85,577.93 C377.89,566.66 395.71,549.16 407.27,536.28 C420.58,521.44 437.99,499.90 437.99,498.25 C438.00,497.56 438.36,497.00 438.81,497.00 C439.76,497.00 448.00,485.28 448.00,483.93 C448.00,483.42 448.45,483.00 449.00,483.00 C449.55,483.00 450.00,482.53 450.00,481.96 C450.00,481.39 450.83,480.03 451.84,478.94 C452.85,477.86 454.31,475.74 455.09,474.23 C455.86,472.73 456.75,471.27 457.06,471.00 C457.37,470.73 459.72,467.10 462.30,462.94 L 466.98 455.37 L 473.74 453.94 C477.46,453.15 481.17,452.47 482.00,452.43 C482.83,452.39 484.54,452.02 485.82,451.59 C487.09,451.17 489.56,450.66 491.32,450.45 C496.23,449.87 510.26,446.85 512.50,445.88 C513.60,445.41 517.20,444.38 520.50,443.59 C540.17,438.92 572.99,428.20 588.06,421.52 C620.87,406.99 642.91,392.31 645.15,383.50 C646.67,377.51 647.56,297.00 646.11,297.00 C645.48,297.00 641.03,298.97 636.23,301.37 C629.76,304.61 626.69,305.62 624.38,305.28 C622.08,304.93 620.25,305.58 616.19,308.28 C617.10,307.55 618.97,306.38 620.50,305.58 C622.90,304.32 623.10,304.00 621.50,303.97 C620.39,303.94 618.61,302.54 617.50,300.82 C616.36,299.05 613.78,297.06 611.50,296.18 C609.30,295.33 607.35,294.26 607.17,293.81 C606.98,293.37 606.27,293.00 605.57,293.00 C603.95,293.00 600.79,289.54 601.64,288.69 C602.00,288.34 601.55,287.76 600.65,287.42 C599.75,287.07 599.26,286.39 599.56,285.90 C599.87,285.40 599.66,285.00 599.09,285.00 C598.53,285.00 598.30,284.38 598.59,283.63 C598.88,282.87 598.49,281.63 597.73,280.87 C596.96,280.11 596.53,278.92 596.75,278.24 C596.98,277.56 596.65,277.00 596.02,277.00 C595.40,277.00 595.19,276.50 595.57,275.89 C595.95,275.28 595.69,274.43 595.00,274.00 C594.31,273.58 593.75,272.05 593.75,270.61 C593.75,269.18 593.35,268.00 592.86,268.00 C592.36,268.00 592.24,266.88 592.59,265.50 C592.94,264.09 592.78,263.00 592.22,263.00 C591.67,263.00 591.28,262.35 591.36,261.56 C591.44,260.77 591.05,260.07 590.50,260.00 C589.36,259.88 586.21,273.61 586.08,279.29 C585.99,283.71 587.31,286.49 596.85,301.91 C600.74,308.19 603.68,313.70 603.40,314.16 C602.66,315.36 604.69,314.87 607.46,313.62 C606.13,314.35 604.89,314.98 603.89,315.43 C597.24,318.46 581.74,323.00 578.04,323.00 C575.85,323.00 572.82,320.43 562.79,310.10 C549.71,296.62 538.00,283.46 538.00,282.22 C538.00,281.83 536.20,279.48 534.00,277.00 C531.80,274.52 530.00,271.88 530.00,271.12 C530.00,269.84 575.39,223.86 586.34,214.06 L 591.18 209.72 L 597.84 210.29 C601.50,210.59 607.42,211.54 611.00,212.39 C614.58,213.24 624.92,215.55 634.00,217.52 C664.54,224.17 704.10,234.26 705.98,235.88 C707.01,236.77 711.76,246.27 716.52,257.00 C721.29,267.73 731.72,291.12 739.70,309.00 C758.58,351.32 761.03,356.50 760.57,361.41 C760.48,362.37 760.28,363.32 760.07,364.53 C759.47,367.97 757.59,375.65 755.88,381.59 C738.01,443.93 690.97,505.35 627.50,549.21 C623.10,552.25 617.92,555.53 616.00,556.51 C614.08,557.48 612.28,558.55 612.00,558.89 C611.72,559.23 609.47,560.58 607.00,561.90 C604.53,563.22 601.83,564.85 601.00,565.53 C600.17,566.21 590.95,570.94 580.50,576.06 C562.83,584.70 559.71,586.14 553.00,588.77 C551.62,589.30 548.03,590.87 545.00,592.24 C541.97,593.61 537.25,595.52 534.50,596.49 C531.75,597.45 527.64,599.07 525.36,600.08 C523.08,601.08 519.93,602.22 518.36,602.59 C516.79,602.97 514.33,603.87 512.91,604.58 C509.25,606.42 462.96,621.00 460.77,621.00 C459.78,621.00 458.19,621.46 457.24,622.02 C456.28,622.58 451.23,624.15 446.00,625.52 C412.22,634.38 385.35,641.23 348.50,650.39 C325.40,656.13 296.60,663.40 284.50,666.55 C272.40,669.70 260.25,672.81 257.50,673.47 C254.75,674.12 251.82,674.92 251.00,675.24 C250.18,675.56 248.60,676.04 247.50,676.31 C242.02,677.65 212.33,686.54 200.33,690.39 C203.69,689.15 205.12,688.33 204.09,688.17 C202.33,687.91 202.12,687.56 203.04,686.46 C203.67,685.69 200.32,686.96 195.60,689.28 C190.91,691.59 187.06,693.77 187.01,694.15 C187.00,694.15 187.00,694.14 187.00,694.13 ZM 120.04 756.19 C120.06,755.81 122.65,753.97 125.79,752.10 C134.46,746.92 178.43,724.77 187.50,721.00 C191.90,719.18 199.77,715.91 205.00,713.74 C252.57,694.03 310.82,675.84 401.00,652.55 C452.01,639.37 461.02,636.97 480.00,631.49 C545.06,612.71 590.15,594.01 633.87,567.66 C647.72,559.31 659.00,551.50 670.54,542.17 C650.26,558.66 627.12,573.62 601.88,586.49 C569.37,603.07 538.44,615.13 493.00,628.97 C485.58,631.23 478.13,633.51 476.46,634.03 C468.88,636.40 437.36,644.83 411.00,651.55 C405.65,652.91 390.42,657.17 389.00,657.70 C388.17,658.01 386.15,658.43 384.50,658.63 C380.11,659.17 359.95,664.99 356.75,666.64 C355.24,667.41 354.00,667.76 354.00,667.41 C354.00,667.06 352.99,667.42 351.75,668.21 C350.51,669.00 347.25,670.24 344.50,670.96 C341.75,671.69 335.67,673.41 331.00,674.79 C326.33,676.17 321.07,677.24 319.32,677.16 C317.57,677.08 313.97,678.09 311.32,679.42 C306.14,682.00 300.90,683.54 294.48,684.36 C292.28,684.64 289.16,685.56 287.56,686.39 C285.95,687.22 284.30,687.69 283.88,687.43 C283.46,687.17 281.63,687.86 279.81,688.97 C277.99,690.08 275.12,690.99 273.43,691.00 C269.57,691.00 261.00,693.87 261.00,695.15 C261.00,695.68 260.53,695.83 259.96,695.47 C259.38,695.12 258.26,695.37 257.46,696.04 C256.66,696.70 256.00,696.91 256.00,696.50 C256.00,696.09 255.32,696.32 254.50,697.00 C253.68,697.68 253.00,697.99 253.00,697.68 C253.00,697.07 242.78,700.40 240.73,701.67 C240.05,702.10 238.64,702.58 237.58,702.74 C236.52,702.91 235.10,703.50 234.42,704.07 C233.73,704.64 231.99,705.32 230.54,705.58 C227.37,706.15 212.94,711.81 211.41,713.08 C210.81,713.58 207.59,714.85 204.27,715.91 C200.94,716.98 197.38,718.28 196.36,718.82 C195.34,719.35 189.77,721.72 184.00,724.08 C173.56,728.34 154.36,737.60 144.17,743.30 C140.35,745.44 139.22,746.52 140.17,747.13 C140.90,747.59 141.52,747.98 141.54,747.98 C141.56,747.99 143.31,747.11 145.44,746.03 C147.56,744.95 149.66,744.29 150.10,744.56 C151.07,745.16 160.07,743.05 161.60,741.86 C162.20,741.39 164.90,740.59 167.60,740.07 C170.29,739.56 173.85,738.59 175.50,737.92 C177.15,737.24 178.95,736.58 179.50,736.45 C180.05,736.31 187.02,734.54 195.00,732.51 C202.98,730.48 212.43,728.25 216.00,727.55 C219.57,726.84 228.57,724.89 236.00,723.21 C258.50,718.12 277.09,714.26 285.00,713.03 C289.12,712.39 294.09,711.46 296.03,710.96 C299.15,710.16 324.05,705.86 342.00,703.03 C350.17,701.74 394.17,696.38 407.50,695.05 C419.18,693.89 431.44,692.63 457.00,689.98 C467.17,688.92 480.90,687.58 487.50,686.99 C494.10,686.40 508.95,685.09 520.50,684.06 C532.05,683.04 545.10,682.15 549.50,682.10 C550.39,682.09 551.33,682.07 552.29,682.04 C549.61,682.29 546.98,682.63 545.00,683.02 C542.53,683.51 532.62,684.63 523.00,685.51 C457.93,691.46 396.21,697.91 364.50,702.07 C296.77,710.95 222.67,726.22 163.00,743.59 C152.27,746.71 141.48,749.85 139.00,750.56 C136.52,751.27 131.24,752.98 127.25,754.37 C123.26,755.75 120.02,756.57 120.04,756.19 ZM 582.44 727.89 C576.58,728.77 570.88,729.48 565.50,729.99 C558.90,730.62 550.69,731.57 547.25,732.10 C538.81,733.40 488.11,734.94 452.50,734.98 C406.46,735.03 375.20,736.89 334.50,742.02 C329.05,742.70 325.27,743.17 322.21,743.57 C322.44,743.42 322.36,743.23 322.00,743.00 C321.17,742.47 320.78,742.02 321.12,742.02 C321.45,742.01 328.43,741.09 336.62,739.97 C370.63,735.34 412.71,733.14 472.50,732.86 C525.63,732.61 556.47,731.43 582.44,727.89 ZM 319.37 743.95 C312.70,744.88 308.69,745.71 292.75,748.82 C286.29,750.07 286.77,748.75 293.75,746.08 C306.25,741.28 316.87,737.50 321.85,736.04 C321.79,736.10 321.74,736.16 321.68,736.23 C321.03,737.01 317.93,738.49 314.79,739.52 C307.32,741.96 308.51,744.01 317.37,743.98 C318.13,743.98 318.79,743.97 319.37,743.95 ZM 746.50 639.62 C735.05,656.23 722.33,669.66 706.71,681.31 C721.86,669.73 735.20,655.75 746.50,639.62 ZM 673.38 701.52 C668.95,703.74 664.33,705.91 659.50,708.04 C654.60,710.21 648.52,712.41 641.67,714.55 C652.00,711.19 661.38,707.27 673.38,701.52 ZM 776.72 575.67 C777.22,577.15 774.81,584.23 771.19,592.99 C772.13,590.55 773.05,588.08 773.92,585.59 C775.65,580.69 776.91,576.22 776.72,575.67 ZM 564.06 681.88 C564.19,681.65 563.26,681.54 561.71,681.53 C561.81,681.52 561.91,681.51 562.00,681.50 C565.84,681.08 566.22,681.08 564.06,681.88 ZM 700.23 514.80 C704.03,510.72 708.29,505.94 713.59,499.89 C712.44,501.20 709.92,504.08 708.00,506.28 C705.49,509.15 702.90,511.99 700.23,514.80 ZM 329.02 733.76 C329.79,733.37 330.97,732.97 332.00,732.76 C333.54,732.45 343.40,729.68 352.95,726.94 C343.47,729.67 333.69,732.43 332.08,732.78 C331.26,732.96 330.10,733.33 329.02,733.76 ZM 324.12 735.45 C324.22,735.43 324.31,735.42 324.39,735.41 C324.96,735.33 325.55,735.20 326.11,735.06 C325.33,735.35 324.59,735.50 324.12,735.45 Z" fill="rgba(1,102,211,1)"/>
<path d="M 603.40 314.16 C603.68,313.70 600.74,308.19 596.85,301.91 C587.31,286.49 585.99,283.71 586.08,279.29 C586.21,273.61 589.36,259.88 590.50,260.00 C591.05,260.07 591.44,260.77 591.36,261.56 C591.28,262.35 591.67,263.00 592.22,263.00 C592.78,263.00 592.94,264.09 592.59,265.50 C592.24,266.88 592.36,268.00 592.86,268.00 C593.35,268.00 593.75,269.18 593.75,270.61 C593.75,272.05 594.31,273.58 595.00,274.00 C595.69,274.43 595.95,275.28 595.57,275.89 C595.19,276.50 595.40,277.00 596.02,277.00 C596.65,277.00 596.98,277.56 596.75,278.24 C596.53,278.92 596.96,280.11 597.73,280.87 C598.49,281.63 598.88,282.87 598.59,283.63 C598.30,284.38 598.53,285.00 599.09,285.00 C599.66,285.00 599.87,285.40 599.56,285.90 C599.26,286.39 599.75,287.07 600.65,287.42 C601.55,287.76 602.00,288.34 601.64,288.69 C600.79,289.54 603.95,293.00 605.57,293.00 C606.27,293.00 606.98,293.37 607.17,293.81 C607.35,294.26 609.30,295.33 611.50,296.18 C613.78,297.06 616.36,299.05 617.50,300.82 C618.61,302.54 620.39,303.94 621.50,303.97 C623.10,304.00 622.90,304.32 620.50,305.58 C618.85,306.44 616.83,307.72 616.00,308.43 C611.70,312.13 601.90,316.59 603.40,314.16 ZM 187.00 694.16 C187.01,693.80 190.88,691.60 195.60,689.28 C200.32,686.96 203.67,685.69 203.04,686.46 C202.12,687.56 202.33,687.91 204.09,688.17 C205.44,688.37 202.57,689.72 196.65,691.66 C191.34,693.40 187.00,694.52 187.00,694.16 Z" fill="rgba(5,47,143,1)"/>
<path d="M 140.17 747.13 C139.22,746.52 140.35,745.44 144.17,743.30 C154.36,737.60 173.56,728.34 184.00,724.08 C189.77,721.72 195.34,719.35 196.36,718.82 C197.38,718.28 200.94,716.98 204.27,715.91 C207.59,714.85 210.81,713.58 211.41,713.08 C212.94,711.81 227.37,706.15 230.54,705.58 C231.99,705.32 233.73,704.64 234.42,704.07 C235.10,703.50 236.52,702.91 237.58,702.74 C238.64,702.58 240.05,702.10 240.73,701.67 C242.78,700.40 253.00,697.07 253.00,697.68 C253.00,697.99 253.68,697.68 254.50,697.00 C255.32,696.32 256.00,696.09 256.00,696.50 C256.00,696.91 256.66,696.70 257.46,696.04 C258.26,695.37 259.38,695.12 259.96,695.47 C260.53,695.83 261.00,695.68 261.00,695.15 C261.00,693.87 269.57,691.00 273.43,691.00 C275.12,690.99 277.99,690.08 279.81,688.97 C281.63,687.86 283.46,687.17 283.88,687.43 C284.30,687.69 285.95,687.22 287.56,686.39 C289.16,685.56 292.28,684.64 294.48,684.36 C300.90,683.54 306.14,682.00 311.32,679.42 C313.97,678.09 317.57,677.08 319.32,677.16 C321.07,677.24 326.33,676.17 331.00,674.79 C335.67,673.41 341.75,671.69 344.50,670.96 C347.25,670.24 350.51,669.00 351.75,668.21 C352.99,667.42 354.00,667.06 354.00,667.41 C354.00,667.76 355.24,667.41 356.75,666.64 C359.95,664.99 380.11,659.17 384.50,658.63 C386.15,658.43 388.17,658.01 389.00,657.70 C390.42,657.17 405.65,652.91 411.00,651.55 C437.36,644.83 468.88,636.40 476.46,634.03 C478.13,633.51 485.58,631.23 493.00,628.97 C538.44,615.13 569.37,603.07 601.88,586.49 C644.43,564.79 681.00,537.15 708.00,506.28 C709.92,504.08 712.44,501.20 713.59,499.89 C718.57,494.19 727.14,482.50 728.62,479.39 C729.50,477.53 730.63,476.00 731.11,476.00 C731.60,476.00 732.00,475.33 732.00,474.50 C732.00,473.67 732.38,473.00 732.84,473.00 C733.31,473.00 734.54,471.31 735.59,469.25 C736.64,467.19 737.84,465.25 738.25,464.94 C739.63,463.91 760.00,423.85 760.00,422.17 C760.00,421.66 760.76,419.50 761.69,417.37 C762.61,415.24 763.29,413.16 763.19,412.75 C763.08,412.34 763.38,412.00 763.84,412.00 C764.62,412.00 766.67,406.33 767.56,401.67 C767.96,399.63 770.68,390.71 771.74,388.00 C772.47,386.15 772.32,386.61 774.24,380.00 C775.12,376.98 776.13,372.36 776.48,369.75 C777.12,365.06 777.17,365.00 780.81,365.01 C782.84,365.01 788.55,365.52 793.50,366.13 C798.45,366.74 804.53,367.34 807.00,367.47 C816.21,367.93 824.98,369.26 826.58,370.44 C828.09,371.54 828.13,373.04 827.08,387.07 C822.88,443.08 807.85,491.25 782.76,529.18 C762.75,559.43 722.15,590.70 680.50,607.96 C675.00,610.24 669.38,612.70 668.00,613.42 C666.62,614.15 663.03,615.53 660.00,616.50 C656.97,617.46 652.59,619.11 650.26,620.15 C647.92,621.19 641.62,623.21 636.26,624.63 C630.89,626.05 626.05,627.56 625.50,627.98 C624.45,628.78 614.92,631.53 601.50,634.88 C597.10,635.98 591.03,637.57 588.00,638.41 C582.24,640.01 546.26,647.28 532.50,649.63 C528.10,650.38 522.47,651.64 520.00,652.43 L 515.50 653.87 L 522.50 654.08 C537.09,654.51 569.62,652.74 581.44,650.86 C585.26,650.25 590.21,649.61 592.44,649.44 C602.49,648.66 614.21,647.09 617.22,646.11 C619.02,645.53 622.75,644.84 625.50,644.58 C628.25,644.32 632.97,643.46 636.00,642.68 C639.03,641.89 642.17,641.21 643.00,641.17 C644.51,641.09 654.82,638.50 665.00,635.64 C668.03,634.79 672.75,633.47 675.50,632.70 C692.98,627.83 720.27,615.74 738.00,605.00 C748.83,598.43 762.80,587.76 771.44,579.43 C774.16,576.81 776.54,575.12 776.72,575.67 C776.91,576.22 775.65,580.69 773.92,585.59 C755.29,638.60 721.25,678.35 675.53,700.49 C654.36,710.74 641.52,715.37 619.00,720.86 C581.24,730.06 551.55,732.49 472.50,732.86 C412.71,733.14 370.63,735.34 336.62,739.97 C328.43,741.09 321.45,742.01 321.12,742.02 C320.78,742.02 321.17,742.47 322.00,743.00 C323.06,743.68 321.70,743.97 317.37,743.98 C308.51,744.01 307.32,741.96 314.79,739.52 C317.93,738.49 321.03,737.01 321.68,736.23 C322.33,735.44 323.27,735.05 323.76,735.35 C324.24,735.65 325.77,735.31 327.15,734.60 C328.52,733.88 330.74,733.07 332.08,732.78 C335.26,732.10 370.06,722.06 372.00,721.27 C372.83,720.93 374.40,720.54 375.50,720.39 C376.60,720.24 383.12,718.72 390.00,717.00 C396.88,715.29 403.17,713.75 404.00,713.58 C404.83,713.41 406.17,713.02 407.00,712.71 C407.83,712.39 410.08,711.96 412.00,711.74 C413.92,711.52 424.27,709.68 435.00,707.65 C457.46,703.41 509.24,694.07 513.13,693.56 C519.61,692.71 524.62,691.70 526.06,690.95 C526.92,690.50 529.62,689.86 532.06,689.51 C544.54,687.77 548.31,686.98 549.71,685.82 C550.37,685.28 551.40,685.13 552.00,685.50 C552.60,685.87 553.70,685.67 554.44,685.05 C555.18,684.43 556.17,684.02 556.64,684.12 C557.12,684.23 558.17,684.06 559.00,683.74 C559.83,683.42 561.85,682.67 563.50,682.08 C566.26,681.09 566.14,681.04 562.00,681.50 C559.53,681.77 553.90,682.04 549.50,682.10 C545.10,682.15 532.05,683.04 520.50,684.06 C508.95,685.09 494.10,686.40 487.50,686.99 C480.90,687.58 467.17,688.92 457.00,689.98 C431.44,692.63 419.18,693.89 407.50,695.05 C394.17,696.38 350.17,701.74 342.00,703.03 C324.05,705.86 299.15,710.16 296.03,710.96 C294.09,711.46 289.12,712.39 285.00,713.03 C277.09,714.26 258.50,718.12 236.00,723.21 C228.57,724.89 219.57,726.84 216.00,727.55 C212.43,728.25 202.98,730.48 195.00,732.51 C187.02,734.54 180.05,736.31 179.50,736.45 C178.95,736.58 177.15,737.24 175.50,737.92 C173.85,738.59 170.29,739.56 167.60,740.07 C164.90,740.59 162.20,741.39 161.60,741.86 C160.07,743.05 151.07,745.16 150.10,744.56 C149.66,744.29 147.56,744.95 145.44,746.03 C143.31,747.11 141.56,747.99 141.54,747.98 C141.52,747.98 140.90,747.59 140.17,747.13 Z" fill="rgba(0,134,236,1)"/>
</g>
</svg>